<svg width="128" height="36" viewBox="0 0 128 36" fill="none" xmlns="http://www.w3.org/2000/svg">
<path d="M23.1145 35.211V18.1874C23.1145 14.6395 22.0157 13.0296 20.1543 13.0296C18.2929 13.0296 16.7626 14.7339 15.4732 16.6718V35.211H11.5547V18.1874C11.5547 14.6395 10.4559 13.0296 8.59455 13.0296C6.73315 13.0296 5.20289 14.6843 3.91345 16.6221V35.2061H0V10.5203H3.91847V14.4457H4.1593C6.07087 11.9414 7.93227 10.5203 10.4158 10.5203C13.1853 10.5203 14.6203 12.319 15.1922 14.8731H15.428C17.4349 12.0358 19.487 10.5203 21.9705 10.5203C25.6482 10.5203 27.0329 13.6408 27.0329 17.5215V35.2061H23.1195L23.1145 35.211Z" fill="#BBDF94"/>
<path d="M32.0652 3.20129C32.0652 1.54663 33.164 0.364014 34.7394 0.364014C36.3148 0.364014 37.4136 1.54663 37.4136 3.20129C37.4136 4.85596 36.3148 6.03857 34.7394 6.03857C33.164 6.03857 32.0652 4.90565 32.0652 3.20129ZM32.6622 35.2113V10.5255H36.5807V35.2113H32.6622Z" fill="#BBDF94"/>
<path d="M54.4671 35.2112V18.1875C54.4671 14.6397 53.0824 13.0298 51.1257 13.0298C49.1689 13.0298 47.3527 14.6397 46.0632 16.4832V35.2112H42.1448V10.5254H46.0632V14.3565H46.3041C48.2608 11.9465 50.363 10.5254 52.8967 10.5254C56.6697 10.5254 58.3906 13.6459 58.3906 17.5267V35.2112H54.4722H54.4671Z" fill="#BBDF94"/>
<path d="M66.9201 35.2111V2.60977H65.3446C62.6704 2.60977 60.6635 3.60356 58.9426 4.78618V0.333984H79.1922V4.78618C77.4713 3.60356 75.4644 2.60977 72.7902 2.60977H71.2148V35.2111H66.915H66.9201Z" fill="#BBDF94"/>
<path d="M80.0952 35.2112V10.5254H84.0137V15.4894H84.2545C85.1125 12.6074 87.024 10.5254 89.3169 10.5254C90.1297 10.5254 91.4191 10.7639 92.1818 11.2807L91.2736 14.7788C90.6064 13.8347 89.6029 13.1242 88.3586 13.1242C86.9839 13.1242 85.5791 14.2124 84.6308 17.5068C84.1943 19.0323 84.0137 20.6173 84.0137 22.2024V35.2112H80.0952Z" fill="#BBDF94"/>
<path d="M108.423 32.7269C107.053 34.2474 105.242 35.2114 102.859 35.2114C97.1589 35.2114 93.8877 30.4461 93.8877 23.3455C93.8877 16.2448 97.465 10.769 102.768 10.769C107.319 10.769 109.526 14.5703 109.526 18.8337C109.526 19.6933 109.436 21.015 109.351 21.7256H97.8212V22.6896C97.8212 29.9393 99.6324 33.9443 103.521 33.9443C105.111 33.9443 106.611 33.2337 107.76 31.6635L108.423 32.7269ZM105.774 20.5082C105.774 14.4262 104.273 11.8871 102.417 11.8871C100.561 11.8871 98.353 14.2722 97.9115 20.5082H105.774Z" fill="#BBDF94"/>
<path d="M126.896 32.7269C125.527 34.2474 123.715 35.2114 121.332 35.2114C115.633 35.2114 112.361 30.4461 112.361 23.3455C112.361 16.2448 115.939 10.769 121.242 10.769C125.793 10.769 128 14.5703 128 18.8337C128 19.6933 127.91 21.015 127.824 21.7256H116.295V22.6896C116.295 29.9393 118.106 33.9443 121.994 33.9443C123.585 33.9443 125.085 33.2337 126.234 31.6635L126.896 32.7269ZM124.247 20.5082C124.247 14.4262 122.747 11.8871 120.891 11.8871C119.034 11.8871 116.827 14.2722 116.385 20.5082H124.247Z" fill="#BBDF94"/>
</svg>
