<svg width="128" height="36" viewBox="0 0 128 36" fill="none" xmlns="http://www.w3.org/2000/svg">
<path d="M23.1145 35.1371V17.9865C23.1145 14.4122 22.0157 12.7902 20.1543 12.7902C18.2929 12.7902 16.7626 14.5073 15.4732 16.4597V35.1371H11.5547V17.9865C11.5547 14.4122 10.4559 12.7902 8.59455 12.7902C6.73315 12.7902 5.20289 14.4572 3.91345 16.4096V35.1321H0V10.2622H3.91847V14.217H4.1593C6.07087 11.6939 7.93227 10.2622 10.4158 10.2622C13.1853 10.2622 14.6203 12.0744 15.1922 14.6475H15.428C17.4349 11.789 19.487 10.2622 21.9705 10.2622C25.6482 10.2622 27.0329 13.406 27.0329 17.3157V35.1321H23.1195L23.1145 35.1371Z" fill="#28504E"/>
<path d="M32.0652 2.88871C32.0652 1.22171 33.164 0.0302734 34.7394 0.0302734C36.3148 0.0302734 37.4136 1.22171 37.4136 2.88871C37.4136 4.55571 36.3148 5.74714 34.7394 5.74714C33.164 5.74714 32.0652 4.60577 32.0652 2.88871ZM32.6623 35.1374V10.2676H36.5807V35.1374H32.6623Z" fill="#28504E"/>
<path d="M54.4673 35.1372V17.9866C54.4673 14.4123 53.0825 12.7904 51.1258 12.7904C49.169 12.7904 47.3528 14.4123 46.0634 16.2695V35.1372H42.1449V10.2673H46.0634V14.127H46.3042C48.2609 11.6991 50.3632 10.2673 52.8969 10.2673C56.6698 10.2673 58.3907 13.4111 58.3907 17.3208V35.1372H54.4723H54.4673Z" fill="#28504E"/>
<path d="M66.9201 35.1372V2.29275H65.3446C62.6704 2.29275 60.6635 3.29396 58.9426 4.48539V0H79.1922V4.48539C77.4713 3.29396 75.4644 2.29275 72.7902 2.29275H71.2148V35.1372H66.915H66.9201Z" fill="#28504E"/>
<path d="M80.0953 35.1372V10.2673H84.0138V15.2683H84.2546C85.1126 12.3649 87.0242 10.2673 89.317 10.2673C90.1298 10.2673 91.4193 10.5076 92.1819 11.0282L91.2738 14.5525C90.6065 13.6013 89.603 12.8855 88.3587 12.8855C86.984 12.8855 85.5792 13.9818 84.6309 17.3008C84.1944 18.8376 84.0138 20.4345 84.0138 22.0315V35.1372H80.0953Z" fill="#28504E"/>
<path d="M108.423 32.6343C107.053 34.1661 105.242 35.1373 102.859 35.1373C97.159 35.1373 93.8878 30.3365 93.8878 23.1829C93.8878 16.0293 97.4651 10.5127 102.768 10.5127C107.319 10.5127 109.527 14.3423 109.527 18.6374C109.527 19.5035 109.436 20.8351 109.351 21.551H97.8213V22.5221C97.8213 29.8259 99.6325 33.8607 103.521 33.8607C105.111 33.8607 106.611 33.1449 107.76 31.563L108.423 32.6343ZM105.774 20.3245C105.774 14.1971 104.273 11.639 102.417 11.639C100.561 11.639 98.3531 14.0419 97.9116 20.3245H105.774Z" fill="#28504E"/>
<path d="M126.896 32.6343C125.527 34.1661 123.715 35.1373 121.332 35.1373C115.633 35.1373 112.361 30.3365 112.361 23.1829C112.361 16.0293 115.939 10.5127 121.242 10.5127C125.792 10.5127 128 14.3423 128 18.6374C128 19.5035 127.91 20.8351 127.824 21.551H116.295V22.5221C116.295 29.8259 118.106 33.8607 121.994 33.8607C123.585 33.8607 125.085 33.1449 126.234 31.563L126.896 32.6343ZM124.247 20.3245C124.247 14.1971 122.747 11.639 120.891 11.639C119.034 11.639 116.827 14.0419 116.385 20.3245H124.247Z" fill="#28504E"/>
</svg>
